<?xml version="1.0" encoding="UTF-8"?>
<svg version="1.1" xmlns="http://www.w3.org/2000/svg" width="500" height="500">
<path d="M0 0 C6.33523191 -0.12676673 12.67013694 -0.21433632 19.00634766 -0.2746582 C21.16174542 -0.29980397 23.31705791 -0.33392524 25.47216797 -0.37719727 C28.57020092 -0.43784508 31.66710681 -0.46620912 34.765625 -0.48828125 C35.72929993 -0.51408768 36.69297485 -0.5398941 37.68585205 -0.56648254 C44.39371203 -0.5692953 44.39371203 -0.5692953 47.56884766 2.41210938 C48.04112793 3.26611328 48.5134082 4.12011719 49 5 C49.37382813 5.62519531 49.74765625 6.25039062 50.1328125 6.89453125 C50.62394531 7.84392578 50.62394531 7.84392578 51.125 8.8125 C53.47291414 13.14325626 56.01224994 17.32607111 58.625 21.5 C59.25728516 22.51126953 59.25728516 22.51126953 59.90234375 23.54296875 C62.25923069 27.29160792 64.65548815 31.01077868 67.09375 34.70703125 C67.85244385 35.86138672 67.85244385 35.86138672 68.62646484 37.0390625 C69.61017157 38.53145042 70.59990231 40.01988851 71.59619141 41.50390625 C72.04140137 42.179375 72.48661133 42.85484375 72.9453125 43.55078125 C73.34250488 44.14544189 73.73969727 44.74010254 74.14892578 45.3527832 C75 47 75 47 75 50 C75.66 50 76.32 50 77 50 C77.74443359 51.32451172 77.74443359 51.32451172 78.50390625 52.67578125 C82.79113023 60.26479489 87.25826555 67.68356811 92 75 C93.80995563 77.84857995 95.6159998 80.69961342 97.421875 83.55078125 C98.72099534 85.5669903 100.06084505 87.53681248 101.4375 89.5 C103 92 103 92 103 95 C103.66 95 104.32 95 105 95 C106.33203125 96.90625 106.33203125 96.90625 107.8125 99.5 C110.13446981 103.5220853 112.54877058 107.4398148 115.1171875 111.30859375 C116 113 116 113 116 116 C116.66 116 117.32 116 118 116 C118 116.99 118 117.98 118 119 C118.66 119 119.32 119 120 119 C120.33 120.32 120.66 121.64 121 123 C121.66 123 122.32 123 123 123 C122.99907821 122.37216645 122.99815641 121.7443329 122.99720669 121.0974741 C122.97515125 105.84209769 122.95858835 90.58672616 122.94818783 75.33133793 C122.94302492 67.95404044 122.93598233 60.57675357 122.92456055 53.19946289 C122.91461354 46.7716782 122.90814653 40.3439012 122.90591151 33.91610903 C122.90460443 30.51060722 122.90151875 27.10512742 122.89426994 23.69963264 C122.88706394 19.90398959 122.88600887 16.10839288 122.88647461 12.31274414 C122.88287933 11.17554932 122.87928406 10.03835449 122.87557983 8.86669922 C122.8769545 7.83879776 122.87832916 6.8108963 122.87974548 5.75184631 C122.87882369 4.85309815 122.8779019 3.95434999 122.87695217 3.02836704 C123 1 123 1 124 0 C136.21 0 148.42 0 161 0 C161 63.36 161 126.72 161 192 C147.8 192 134.6 192 121 192 C110.73684211 176.60526316 110.73684211 176.60526316 110 172 C109.34 172 108.68 172 108 172 C106.6328125 170.05859375 106.6328125 170.05859375 105.125 167.4375 C104.59519531 166.52484375 104.06539063 165.6121875 103.51953125 164.671875 C103.01808594 163.79015625 102.51664062 162.9084375 102 162 C101.61199219 161.32453125 101.22398437 160.6490625 100.82421875 159.953125 C99.87930581 158.30408775 98.93945832 156.65215083 98 155 C97.4225 154.071875 96.845 153.14375 96.25 152.1875 C95 150 95 150 95 148 C94.34 148 93.68 148 93 148 C92.67128906 147.36835938 92.34257812 146.73671875 92.00390625 146.0859375 C88.61778381 139.7174579 84.93629418 133.65407691 80.89672852 127.68505859 C78 123.31978497 78 123.31978497 78 120 C77.34 120 76.68 120 76 120 C74.7109375 118.35546875 74.7109375 118.35546875 73.375 116.1875 C72.92898437 115.47980469 72.48296875 114.77210938 72.0234375 114.04296875 C71 112 71 112 71 109 C70.34 109 69.68 109 69 109 C68.72027344 108.47792969 68.44054687 107.95585937 68.15234375 107.41796875 C64.70791097 101.09394587 60.90805696 95.04579751 57 89 C53.1817096 83.09307211 49.49942781 77.1813321 46.12109375 71.01171875 C43.19914247 65.27708048 43.19914247 65.27708048 38 62 C38 104.9 38 147.8 38 192 C25.79 192 13.58 192 1 192 C-0.51059936 188.97880128 -0.13341285 185.85963025 -0.12025452 182.5463562 C-0.12110894 181.7687724 -0.12196337 180.9911886 -0.12284368 180.19004166 C-0.12449783 177.57051905 -0.11897816 174.95105973 -0.11352539 172.33154297 C-0.11324348 170.4593506 -0.11340133 168.58715812 -0.1139679 166.71496582 C-0.11425572 161.6201958 -0.10836148 156.52544914 -0.10139394 151.43068457 C-0.09515783 146.11086488 -0.0945564 140.7910447 -0.09336853 135.47122192 C-0.09025598 125.39189905 -0.08204361 115.31258697 -0.07201904 105.23326886 C-0.06085555 93.76064898 -0.05534686 82.2880286 -0.05032361 70.81540465 C-0.03986094 47.21026377 -0.02226296 23.60513249 0 0 Z " fill="#F8F8F7" transform="translate(41,162)"/>
<path d="M0 0 C12.87 0 25.74 0 39 0 C40.68503699 1.68503699 40.11965983 3.76259884 40.12442017 6.01094055 C40.11902725 7.08555794 40.11902725 7.08555794 40.11352539 8.18188477 C40.11367142 8.93305573 40.11381744 9.68422668 40.1139679 10.4581604 C40.11326863 12.95260459 40.10547564 15.44697503 40.09765625 17.94140625 C40.09579212 19.66633564 40.09436819 21.39126557 40.09336853 23.11619568 C40.08954297 27.66512503 40.07971238 32.21402267 40.06866455 36.76293945 C40.05845124 41.40120006 40.05387108 46.03946577 40.04882812 50.67773438 C40.03809014 59.78517022 40.02101327 68.89258248 40 78 C40.99 78 41.98 78 43 78 C43.2578125 77.43796875 43.515625 76.8759375 43.78125 76.296875 C45.14169777 73.73295421 46.72788962 71.54773635 48.5 69.25 C49.1084375 68.45078125 49.716875 67.6515625 50.34375 66.828125 C50.8903125 66.22484375 51.436875 65.6215625 52 65 C52.66 65 53.32 65 54 65 C54.226875 64.29875 54.45375 63.5975 54.6875 62.875 C56.33841288 59.25871465 58.2908835 56.91230024 61 54 C61.66 54 62.32 54 63 54 C63.25652344 53.4328125 63.51304687 52.865625 63.77734375 52.28125 C65.13660458 49.74512117 66.73139474 47.71952153 68.5625 45.5 C70.92682784 42.60402258 73.24754576 39.69492373 75.45703125 36.6796875 C75.86042725 36.12990234 76.26382324 35.58011719 76.67944336 35.01367188 C77.82986095 33.43686917 78.97366316 31.85524643 80.1171875 30.2734375 C80.73851562 29.52320313 81.35984375 28.77296875 82 28 C82.66 28 83.32 28 84 28 C84.2578125 27.43796875 84.515625 26.8759375 84.78125 26.296875 C86.14169777 23.73295421 87.72788962 21.54773635 89.5 19.25 C90.1084375 18.45078125 90.716875 17.6515625 91.34375 16.828125 C91.8903125 16.22484375 92.436875 15.6215625 93 15 C93.66 15 94.32 15 95 15 C95.268125 14.2575 95.53625 13.515 95.8125 12.75 C96.95276751 10.10938051 98.09380306 8.14447156 100 6 C100.66 6 101.32 6 102 6 C102 5.34 102 4.68 102 4 C102.66 4 103.32 4 104 4 C104.66 2.68 105.32 1.36 106 0 C119.2 0 132.4 0 146 0 C146 5 146 5 144 8 C143.34 8 142.68 8 142 8 C141.6596875 9.051875 141.6596875 9.051875 141.3125 10.125 C139.66158712 13.74128535 137.7091165 16.08769976 135 19 C134.34 19 133.68 19 133 19 C132.62875 20.0828125 132.62875 20.0828125 132.25 21.1875 C130.87730408 24.27606582 129.27646704 26.51011418 127 29 C126.34 29 125.68 29 125 29 C124.773125 29.70125 124.54625 30.4025 124.3125 31.125 C122.66158712 34.74128535 120.7091165 37.08769976 118 40 C117.34 40 116.68 40 116 40 C115.773125 40.70125 115.54625 41.4025 115.3125 42.125 C113.66158712 45.74128535 111.7091165 48.08769976 109 51 C108.34 51 107.68 51 107 51 C106.690625 51.99 106.690625 51.99 106.375 53 C104.50875748 57.07180186 102.02438473 60.68796998 99 64 C98.34 64 97.68 64 97 64 C96.690625 64.61875 96.38125 65.2375 96.0625 65.875 C95.375 67.25 94.6875 68.625 94 70 C93.34 70 92.68 70 92 70 C91.34 71.65 90.68 73.3 90 75 C89.34 75 88.68 75 88 75 C88 75.66 88 76.32 88 77 C87.34 77 86.68 77 86 77 C85.731875 77.7425 85.46375 78.485 85.1875 79.25 C84.04723249 81.89061949 82.90619694 83.85552844 81 86 C80.34 86 79.68 86 79 86 C78.16094552 88.68497433 77.72650328 90.25451373 78 93 C79.36705626 95.14421839 80.98313675 96.80009112 82.7578125 98.62109375 C85.46123472 101.48935879 87.81253095 104.54651171 90.1875 107.6875 C92.51677515 110.75254967 94.84004306 113.80745421 97.30078125 116.76953125 C99 119 99 119 99 121 C99.66 121 100.32 121 101 121 C102.5078125 122.6796875 102.5078125 122.6796875 104.125 124.875 C104.66382813 125.59429687 105.20265625 126.31359375 105.7578125 127.0546875 C107 129 107 129 107 131 C107.66 131 108.32 131 109 131 C110.2890625 132.4609375 110.2890625 132.4609375 111.625 134.375 C112.07101562 135.00148438 112.51703125 135.62796875 112.9765625 136.2734375 C114 138 114 138 114 140 C114.66 140 115.32 140 116 140 C117.7265625 141.8984375 117.7265625 141.8984375 119.625 144.375 C120.57246094 145.59316406 120.57246094 145.59316406 121.5390625 146.8359375 C123 149 123 149 123 151 C123.66 151 124.32 151 125 151 C126.54076588 152.8649811 127.96753238 154.72578451 129.375 156.6875 C132.74139948 161.29865159 132.74139948 161.29865159 136.2890625 165.76953125 C138 168 138 168 138 170 C138.66 170 139.32 170 140 170 C140.99 172.475 140.99 172.475 142 175 C142.66 175 143.32 175 144 175 C145.40234375 176.609375 145.40234375 176.609375 146.9375 178.75 C147.44152344 179.44609375 147.94554687 180.1421875 148.46484375 180.859375 C148.97144531 181.56578125 149.47804688 182.2721875 150 183 C150.83724609 183.96679688 150.83724609 183.96679688 151.69140625 184.953125 C153.30781153 187.48147237 153.10153867 189.05507546 153 192 C146.78868226 192.07408447 140.57762095 192.12857114 134.3659668 192.16479492 C132.25231446 192.1798936 130.13869352 192.20037426 128.02514648 192.22631836 C124.98934185 192.26265397 121.95395094 192.27971544 118.91796875 192.29296875 C117.4975251 192.31619453 117.4975251 192.31619453 116.04838562 192.33988953 C114.72735588 192.34022942 114.72735588 192.34022942 113.37963867 192.34057617 C112.60464523 192.34723801 111.82965179 192.35389984 111.03117371 192.36076355 C108.46430898 191.90485413 107.56594449 191.04793544 106 189 C106 188.34 106 187.68 106 187 C105.34 187 104.68 187 104 187 C103.01 184.525 103.01 184.525 102 182 C101.34 182 100.68 182 100 182 C97 178.53846154 97 178.53846154 97 176 C96.34 176 95.68 176 95 176 C93.39859233 174.09586877 91.91038918 172.18777853 90.4375 170.1875 C89.54461295 168.99616176 88.65004688 167.80608029 87.75390625 166.6171875 C87.29902832 166.01358398 86.84415039 165.40998047 86.37548828 164.78808594 C83.57288327 161.14479892 80.58607329 157.6527475 77.6171875 154.14453125 C76 152 76 152 76 150 C75.34 150 74.68 150 74 150 C71 146.53846154 71 146.53846154 71 144 C70.34 144 69.68 144 69 144 C68.01 141.525 68.01 141.525 67 139 C66.34 139 65.68 139 65 139 C63.4921875 137.3203125 63.4921875 137.3203125 61.875 135.125 C61.33617187 134.40570313 60.79734375 133.68640625 60.2421875 132.9453125 C59 131 59 131 59 129 C58.01 128.67 57.02 128.34 56 128 C54.39453125 126.22265625 54.39453125 126.22265625 52.8125 124.0625 C52.28269531 123.35222656 51.75289063 122.64195312 51.20703125 121.91015625 C50 120 50 120 50 118 C49.34 118 48.68 118 48 118 C43 112.52380952 43 112.52380952 43 110 C42.01 110 41.02 110 40 110 C40.00222061 111.01255356 40.00444122 112.02510712 40.00672913 113.06834412 C40.02696054 122.5893765 40.04197214 132.11040455 40.05181217 141.63145351 C40.057041 146.52685374 40.06413864 151.42223668 40.07543945 156.31762695 C40.08626834 161.03787978 40.09227684 165.75811592 40.09487724 170.4783802 C40.09673149 172.28338954 40.10035209 174.08839792 40.10573006 175.89340019 C40.11294052 178.41259644 40.11399094 180.9317229 40.11352539 183.45092773 C40.11712067 184.20474228 40.12071594 184.95855682 40.12442017 185.73521423 C40.11405216 190.88594784 40.11405216 190.88594784 39 192 C26.13 192 13.26 192 0 192 C0 128.64 0 65.28 0 0 Z " fill="#F5F4F4" transform="translate(250,162)"/>
<path d="M0 0 C5.70540932 6.48794675 6.39891595 12.05737125 6.35546875 20.46875 C5.73029937 26.67922384 2.59024841 30.92661602 -2 35 C-2.66 35 -3.32 35 -4 35 C-4 35.66 -4 36.32 -4 37 C-10.79485991 40.29847569 -20.40253237 40.25447126 -27.6484375 38.27734375 C-32.97097519 35.75882496 -36.74958563 31.87562156 -40 27 C-42.17217566 18.60370563 -41.55129018 10.84243249 -38 3 C-37.34 3 -36.68 3 -36 3 C-35.814375 2.4225 -35.62875 1.845 -35.4375 1.25 C-33.34094244 -2.03156835 -30.50936118 -3.54354576 -27 -5 C-17.48904215 -7.06070754 -7.54148718 -6.70354416 0 0 Z " fill="#3A7FEE" transform="translate(463,316)"/>
<path d="M0 0 C0.66 0.33 1.32 0.66 2 1 C1.67 1.66 1.34 2.32 1 3 C-0.17604275 10.28856125 -0.11382279 17.6394597 0 25 C-0.66 24.67 -1.32 24.34 -2 24 C-4.27413668 15.67607663 -3.51947611 7.77217641 0 0 Z " fill="#29559D" transform="translate(425,319)"/>
<path d="M0 0 C4.39683488 1.19913678 7.09840934 2.4288115 10 6 C10 6.66 10 7.32 10 8 C8.68 7.67 7.36 7.34 6 7 C6 6.34 6 5.68 6 5 C5.195625 4.731875 4.39125 4.46375 3.5625 4.1875 C2.716875 3.795625 1.87125 3.40375 1 3 C0.67 2.01 0.34 1.02 0 0 Z " fill="#3762B2" transform="translate(455,312)"/>
<path d="M0 0 C2.31 0.66 4.62 1.32 7 2 C7.33 3.65 7.66 5.3 8 7 C4.63718422 5.55879324 2.4480582 3.71035015 0 1 C0 0.67 0 0.34 0 0 Z " fill="#305FB1" transform="translate(425,345)"/>
<path d="M0 0 C0 4.24170573 -1.83750763 6.75139708 -4.6875 9.8125 C-5.120625 10.204375 -5.55375 10.59625 -6 11 C-6.66 10.67 -7.32 10.34 -8 10 C-6.85500893 8.52018126 -5.708983 7.04116318 -4.5625 5.5625 C-3.60537109 4.32693359 -3.60537109 4.32693359 -2.62890625 3.06640625 C-1 1 -1 1 0 0 Z " fill="#BBB7B7" transform="translate(324,201)"/>
<path d="M0 0 C0.8125 1.6875 0.8125 1.6875 1 4 C-1.375 6.625 -1.375 6.625 -4 9 C-4.33 9.66 -4.66 10.32 -5 11 C-5.66 11 -6.32 11 -7 11 C-5.5140084 6.40693504 -3.14985318 3.56430755 0 0 Z " fill="#A4A3A3" transform="translate(311,216)"/>
<path d="M0 0 C0.66 0.33 1.32 0.66 2 1 C0.68 3.31 -0.64 5.62 -2 8 C-2.99 7.67 -3.98 7.34 -5 7 C-3.35 4.69 -1.7 2.38 0 0 Z " fill="#B8B5B5" transform="translate(302,227)"/>
<path d="M0 0 C-3 2 -3 2 -5 2 C-5 2.66 -5 3.32 -5 4 C-6.65 4 -8.3 4 -10 4 C-6.66064924 0.50886057 -4.84725717 -0.1275594 0 0 Z " fill="#345CA1" transform="translate(441,311)"/>
<path d="" fill="#000000" transform="translate(0,0)"/>
<path d="" fill="#000000" transform="translate(0,0)"/>
<path d="" fill="#000000" transform="translate(0,0)"/>
<path d="" fill="#000000" transform="translate(0,0)"/>
<path d="" fill="#000000" transform="translate(0,0)"/>
<path d="" fill="#000000" transform="translate(0,0)"/>
<path d="" fill="#000000" transform="translate(0,0)"/>
<path d="" fill="#000000" transform="translate(0,0)"/>
<path d="" fill="#000000" transform="translate(0,0)"/>
<path d="" fill="#000000" transform="translate(0,0)"/>
<path d="" fill="#000000" transform="translate(0,0)"/>
<path d="" fill="#000000" transform="translate(0,0)"/>
<path d="" fill="#000000" transform="translate(0,0)"/>
<path d="" fill="#000000" transform="translate(0,0)"/>
<path d="" fill="#000000" transform="translate(0,0)"/>
<path d="" fill="#000000" transform="translate(0,0)"/>
<path d="" fill="#000000" transform="translate(0,0)"/>
<path d="" fill="#000000" transform="translate(0,0)"/>
<path d="" fill="#000000" transform="translate(0,0)"/>
<path d="" fill="#000000" transform="translate(0,0)"/>
<path d="" fill="#000000" transform="translate(0,0)"/>
<path d="" fill="#000000" transform="translate(0,0)"/>
<path d="" fill="#000000" transform="translate(0,0)"/>
<path d="" fill="#000000" transform="translate(0,0)"/>
<path d="" fill="#000000" transform="translate(0,0)"/>
<path d="" fill="#000000" transform="translate(0,0)"/>
<path d="" fill="#000000" transform="translate(0,0)"/>
<path d="" fill="#000000" transform="translate(0,0)"/>
<path d="" fill="#000000" transform="translate(0,0)"/>
<path d="" fill="#000000" transform="translate(0,0)"/>
<path d="" fill="#000000" transform="translate(0,0)"/>
<path d="" fill="#000000" transform="translate(0,0)"/>
<path d="" fill="#000000" transform="translate(0,0)"/>
<path d="" fill="#000000" transform="translate(0,0)"/>
<path d="" fill="#000000" transform="translate(0,0)"/>
<path d="" fill="#000000" transform="translate(0,0)"/>
<path d="" fill="#000000" transform="translate(0,0)"/>
<path d="" fill="#000000" transform="translate(0,0)"/>
<path d="" fill="#000000" transform="translate(0,0)"/>
<path d="" fill="#000000" transform="translate(0,0)"/>
<path d="" fill="#000000" transform="translate(0,0)"/>
<path d="" fill="#000000" transform="translate(0,0)"/>
<path d="" fill="#000000" transform="translate(0,0)"/>
<path d="" fill="#000000" transform="translate(0,0)"/>
<path d="" fill="#000000" transform="translate(0,0)"/>
<path d="" fill="#000000" transform="translate(0,0)"/>
<path d="" fill="#000000" transform="translate(0,0)"/>
<path d="" fill="#000000" transform="translate(0,0)"/>
<path d="" fill="#000000" transform="translate(0,0)"/>
<path d="" fill="#000000" transform="translate(0,0)"/>
<path d="" fill="#000000" transform="translate(0,0)"/>
<path d="" fill="#000000" transform="translate(0,0)"/>
<path d="" fill="#000000" transform="translate(0,0)"/>
<path d="" fill="#000000" transform="translate(0,0)"/>
<path d="" fill="#000000" transform="translate(0,0)"/>
<path d="" fill="#000000" transform="translate(0,0)"/>
<path d="" fill="#000000" transform="translate(0,0)"/>
<path d="" fill="#000000" transform="translate(0,0)"/>
<path d="" fill="#000000" transform="translate(0,0)"/>
<path d="" fill="#000000" transform="translate(0,0)"/>
<path d="" fill="#000000" transform="translate(0,0)"/>
<path d="" fill="#000000" transform="translate(0,0)"/>
<path d="" fill="#000000" transform="translate(0,0)"/>
<path d="" fill="#000000" transform="translate(0,0)"/>
<path d="" fill="#000000" transform="translate(0,0)"/>
<path d="" fill="#000000" transform="translate(0,0)"/>
<path d="" fill="#000000" transform="translate(0,0)"/>
<path d="" fill="#000000" transform="translate(0,0)"/>
</svg>
